<?xml version="1.0" encoding="iso-8859-1"?>
<svg version="1.1" id="Layer_1" xmlns="http://www.w3.org/2000/svg" xmlns:xlink="http://www.w3.org/1999/xlink" x="0px" y="0px" viewBox="0 0 512.001 512.001" fill="#262626">
	<g>
		<path d="M501.801,90.455H10.199C4.567,90.455,0,95.021,0,100.654v268.728c0,28.764,23.4,52.165,52.165,52.165h407.671
			c28.764,0,52.165-23.401,52.165-52.165V100.654C512,95.021,507.433,90.455,501.801,90.455z M491.602,369.381
			c0,17.516-14.25,31.766-31.766,31.766H52.165c-17.516,0-31.766-14.251-31.766-31.766V122.906l229.14,187.584
			c1.88,1.538,4.17,2.307,6.461,2.307c2.287,0,4.574-0.767,6.452-2.3l177.306-144.829c4.362-3.564,5.01-9.988,1.447-14.351
			c-3.565-4.363-9.988-5.011-14.351-1.446L256.007,289.423L37.879,110.853h453.723V369.381z"/>
	</g>
	<g>
		<path d="M469.923,127.859c-3.563-4.363-9.99-5.011-14.35-1.447l-3.06,2.499c-4.363,3.564-5.011,9.988-1.448,14.351
			c2.015,2.468,4.948,3.747,7.905,3.747c2.269,0,4.552-0.754,6.445-2.3l3.06-2.499C472.838,138.647,473.486,132.222,469.923,127.859
			z"/>
	</g>
</svg>
