<svg xmlns="http://www.w3.org/2000/svg" xmlns:xlink="http://www.w3.org/1999/xlink" width="140px" height="77px">
	<path fill-rule="evenodd"  fill="rgb(236, 236, 236)" d="M139.182,77.000 L139.138,77.000 C138.884,77.000 138.757,76.868 138.757,76.604 L138.757,73.001 C138.288,73.851 137.722,74.564 137.058,75.140 C135.671,76.380 134.035,77.000 132.151,77.000 C130.100,77.000 128.352,76.273 126.907,74.817 C125.451,73.372 124.724,71.624 124.724,69.573 C124.724,67.522 125.451,65.774 126.907,64.329 C128.352,62.874 130.100,62.146 132.151,62.146 C134.202,62.146 135.949,62.874 137.395,64.329 C138.850,65.774 139.577,67.522 139.577,69.573 L139.577,76.604 C139.577,76.868 139.446,77.000 139.182,77.000 ZM136.809,64.915 C135.520,63.636 133.967,62.996 132.151,62.996 C130.334,62.996 128.782,63.636 127.493,64.915 C126.194,66.204 125.544,67.757 125.544,69.573 C125.544,71.390 126.194,72.942 127.493,74.231 C128.782,75.521 130.334,76.165 132.151,76.165 C133.967,76.165 135.520,75.521 136.809,74.231 C138.108,72.942 138.757,71.390 138.757,69.573 C138.757,67.757 138.108,66.204 136.809,64.915 ZM115.634,62.996 L114.741,62.996 C113.491,62.996 112.431,63.426 111.562,64.285 C110.693,65.154 110.249,66.224 110.229,67.493 L110.229,76.604 C110.229,76.868 110.097,77.000 109.834,77.000 L109.790,77.000 C109.536,77.000 109.409,76.868 109.409,76.604 L109.409,67.493 C109.418,65.999 109.941,64.734 110.976,63.699 C112.002,62.664 113.256,62.146 114.741,62.146 L115.634,62.146 C115.898,62.146 116.030,62.283 116.030,62.557 C116.030,62.850 115.898,62.996 115.634,62.996 ZM95.426,45.335 C95.375,45.335 93.976,43.965 91.228,41.224 L91.228,20.900 C93.009,19.124 94.382,17.754 95.350,16.789 L111.531,16.789 L115.652,20.911 L115.652,27.093 L107.486,27.093 L107.486,24.956 L99.395,24.956 L99.395,37.168 L107.486,37.168 L107.486,35.031 L115.652,35.031 L115.652,41.213 L111.531,45.335 L95.426,45.335 ZM80.668,77.000 C78.617,77.000 76.869,76.273 75.424,74.817 C73.969,73.372 73.241,71.624 73.241,69.573 C73.241,67.522 73.969,65.774 75.424,64.329 C76.869,62.874 78.617,62.146 80.668,62.146 C82.113,62.146 83.446,62.542 84.667,63.333 C85.888,64.114 86.801,65.164 87.406,66.482 C87.455,66.590 87.465,66.688 87.436,66.775 C87.396,66.893 87.333,66.971 87.245,67.010 C85.897,67.606 83.993,68.460 81.532,69.573 C79.032,70.706 77.138,71.561 75.849,72.137 C75.712,72.195 75.536,72.278 75.321,72.386 C75.096,72.483 74.916,72.562 74.779,72.620 C74.955,73.011 75.184,73.367 75.468,73.689 C76.796,75.369 78.529,76.209 80.668,76.209 C82.064,76.209 83.334,75.799 84.477,74.979 C85.619,74.168 86.425,73.104 86.894,71.785 C86.952,71.600 87.089,71.507 87.304,71.507 C87.440,71.507 87.543,71.561 87.611,71.668 C87.699,71.785 87.719,71.912 87.670,72.049 C87.152,73.524 86.249,74.720 84.960,75.638 C83.671,76.546 82.240,77.000 80.668,77.000 ZM80.477,69.148 C83.124,67.957 85.131,67.054 86.498,66.438 C86.244,66.028 85.980,65.672 85.707,65.369 C84.379,63.807 82.699,63.025 80.668,63.025 C78.852,63.025 77.299,63.670 76.010,64.959 C74.711,66.248 74.061,67.801 74.061,69.617 C74.061,69.939 74.081,70.257 74.120,70.569 C74.179,71.009 74.291,71.443 74.457,71.873 C75.785,71.268 77.792,70.359 80.477,69.148 ZM78.330,16.789 L86.497,16.789 L86.497,45.335 L78.330,45.335 L78.330,16.789 ZM78.330,0.608 L86.497,0.608 L86.497,8.622 L78.330,8.622 L78.330,0.608 ZM65.431,45.335 L57.264,45.335 L57.264,16.789 L65.431,16.789 L65.431,20.911 L69.476,16.789 L73.522,16.789 L73.522,24.956 L65.431,24.956 L65.431,45.335 ZM29.482,41.221 L29.482,4.646 C32.170,1.954 33.564,0.608 33.667,0.608 L53.906,0.608 L53.906,8.775 L37.649,8.775 L37.649,16.789 L45.816,16.789 L45.816,24.956 L37.649,24.956 L37.649,37.168 L53.906,37.168 L53.906,45.335 L33.591,45.335 C32.627,44.370 31.257,42.999 29.482,41.221 ZM32.173,66.775 C32.134,66.893 32.071,66.971 31.983,67.010 C30.635,67.606 28.731,68.460 26.270,69.573 C23.770,70.706 21.876,71.561 20.586,72.137 C20.450,72.195 20.274,72.278 20.059,72.386 C19.834,72.483 19.654,72.562 19.517,72.620 C19.693,73.011 19.922,73.367 20.206,73.689 C21.534,75.369 23.267,76.209 25.406,76.209 C26.802,76.209 28.072,75.799 29.214,74.979 C30.357,74.168 31.163,73.104 31.631,71.785 C31.690,71.600 31.827,71.507 32.042,71.507 C32.178,71.507 32.281,71.561 32.349,71.668 C32.437,71.785 32.457,71.912 32.408,72.049 C31.890,73.524 30.987,74.720 29.698,75.638 C28.409,76.546 26.978,77.000 25.406,77.000 C23.355,77.000 21.607,76.273 20.162,74.817 C18.706,73.372 17.979,71.624 17.979,69.573 C17.979,67.522 18.706,65.774 20.162,64.329 C21.607,62.874 23.355,62.146 25.406,62.146 C26.851,62.146 28.184,62.542 29.405,63.333 C30.625,64.114 31.538,65.164 32.144,66.482 C32.193,66.590 32.203,66.688 32.173,66.775 ZM30.445,65.369 C29.117,63.807 27.437,63.025 25.406,63.025 C23.589,63.025 22.037,63.670 20.748,64.959 C19.449,66.248 18.799,67.801 18.799,69.617 C18.799,69.939 18.819,70.257 18.858,70.569 C18.917,71.009 19.029,71.443 19.195,71.873 C20.523,71.268 22.530,70.359 25.215,69.148 C27.862,67.957 29.869,67.054 31.236,66.438 C30.982,66.028 30.718,65.672 30.445,65.369 ZM8.552,65.999 C8.816,65.999 8.948,66.126 8.948,66.380 C8.948,66.673 8.816,66.819 8.552,66.819 L1.243,66.819 L1.243,76.604 C1.243,76.868 1.111,77.000 0.847,77.000 L0.803,77.000 C0.549,77.000 0.423,76.868 0.423,76.604 L0.423,59.964 C0.423,58.821 0.828,57.840 1.638,57.020 C2.459,56.209 3.445,55.804 4.597,55.804 L8.552,55.804 C8.816,55.804 8.948,55.936 8.948,56.199 C8.948,56.483 8.816,56.624 8.552,56.624 L4.597,56.624 C3.670,56.624 2.879,56.951 2.224,57.605 C1.570,58.260 1.243,59.046 1.243,59.964 L1.243,65.999 L8.552,65.999 ZM47.650,62.146 L48.543,62.146 C48.807,62.146 48.939,62.283 48.939,62.557 C48.939,62.850 48.807,62.996 48.543,62.996 L47.650,62.996 C46.400,62.996 45.340,63.426 44.471,64.285 C43.602,65.154 43.158,66.224 43.138,67.493 L43.138,76.604 C43.138,76.868 43.006,77.000 42.743,77.000 L42.699,77.000 C42.445,77.000 42.318,76.868 42.318,76.604 L42.318,67.493 C42.327,65.999 42.850,64.734 43.885,63.699 C44.911,62.664 46.165,62.146 47.650,62.146 ZM63.258,62.146 L64.152,62.146 C64.415,62.146 64.547,62.283 64.547,62.557 C64.547,62.850 64.415,62.996 64.152,62.996 L63.258,62.996 C62.008,62.996 60.948,63.426 60.079,64.285 C59.210,65.154 58.766,66.224 58.746,67.493 L58.746,76.604 C58.746,76.868 58.614,77.000 58.351,77.000 L58.307,77.000 C58.053,77.000 57.926,76.868 57.926,76.604 L57.926,67.493 C57.936,65.999 58.458,64.734 59.493,63.699 C60.519,62.664 61.773,62.146 63.258,62.146 ZM98.459,55.804 C98.635,55.804 98.781,55.867 98.898,55.994 C99.025,56.121 99.089,56.272 99.089,56.448 C99.089,56.624 99.025,56.776 98.898,56.902 C98.771,57.029 98.625,57.093 98.459,57.093 C98.273,57.093 98.117,57.029 97.990,56.902 C97.863,56.776 97.800,56.624 97.800,56.448 C97.800,56.272 97.863,56.121 97.990,55.994 C98.117,55.867 98.273,55.804 98.459,55.804 ZM98.415,62.146 C98.698,62.146 98.840,62.283 98.840,62.557 L98.840,76.604 C98.840,76.868 98.713,77.000 98.459,77.000 L98.415,77.000 C98.151,77.000 98.019,76.868 98.019,76.604 L98.019,62.557 C98.019,62.283 98.151,62.146 98.415,62.146 Z"/>
</svg>