<?xml version="1.0" standalone="no"?>
<!DOCTYPE svg PUBLIC "-//W3C//DTD SVG 20010904//EN" "http://www.w3.org/TR/2001/REC-SVG-20010904/DTD/svg10.dtd">
<svg version="1.0" xmlns="http://www.w3.org/2000/svg" viewBox="0 0 2302.000000 403.000000" preserveAspectRatio="xMidYMid meet">
	<defs>
		<style>
			g { display: none; }
			g:target { display: initial; }
		</style>
	</defs>
	<g id="white" transform="translate(0.000000,403.000000) scale(0.100000,-0.100000)" fill="#FFFFFF" stroke="none">
		<path d="M13520 4019 c-66 -11 -104 -46 -122 -114 l-12 -45 -528 0 c-311 0
-528 -4 -528 -9 0 -12 -28 -8 690 -102 338 -44 658 -86 710 -93 l95 -14 -237
-1 c-235 -1 -238 -1 -252 -23 -7 -13 -28 -88 -46 -168 -18 -80 -38 -160 -46
-177 l-13 -33 -320 0 c-177 0 -321 -4 -321 -9 0 -4 37 -13 83 -19 45 -6 389
-50 765 -99 l682 -88 -464 -3 -464 -2 -19 -73 c-11 -39 -60 -235 -109 -434
l-88 -363 -495 0 c-272 0 -491 -3 -487 -7 4 -5 357 -54 784 -110 l777 -101
-312 -1 -312 -1 -15 -52 c-32 -113 -188 -758 -221 -916 l-7 -32 -514 0 c-283
0 -514 -3 -514 -8 0 -4 345 -52 768 -107 l767 -100 -277 -3 -277 -2 -26 -83
c-36 -120 -125 -516 -125 -560 0 -69 -30 -67 849 -67 477 0 819 4 882 11 237
24 433 77 632 172 246 117 390 241 495 428 32 55 99 310 200 759 60 264 67
318 53 401 -28 153 -138 254 -365 335 l-78 27 83 29 c112 37 279 119 355 173
93 67 210 199 235 265 35 93 87 294 140 540 62 286 62 329 7 441 -86 173 -301
326 -549 389 -203 52 -220 53 -1064 56 -451 1 -814 -1 -845 -7z m1255 -634
c74 -20 105 -47 105 -92 0 -27 -58 -274 -96 -410 -6 -23 -9 -23 -155 -23 -150
0 -185 -9 -111 -30 20 -5 154 -43 297 -84 l260 -75 -170 -3 -170 -3 -17 -65
c-13 -49 -26 -73 -52 -97 -57 -53 -116 -64 -318 -61 l-176 3 38 155 c21 85 72
298 115 472 l77 317 81 4 c193 7 236 6 292 -8z m-350 -1607 c21 -8 48 -26 59
-41 23 -31 23 -31 -61 -379 l-57 -238 -175 0 c-106 0 -170 -4 -161 -9 18 -11
298 -95 470 -142 l125 -34 -151 -3 -151 -3 -13 -27 c-6 -15 -16 -53 -20 -85
-11 -76 -39 -118 -102 -153 -53 -29 -54 -29 -250 -32 -109 -2 -198 -1 -198 2
0 7 104 437 220 915 l62 253 182 -5 c123 -3 194 -9 221 -19z"/>
<path d="M8315 4001 c-44 -19 -85 -84 -85 -137 l0 -24 -465 0 c-378 0 -465 -2
-465 -13 0 -9 27 -17 83 -25 45 -6 282 -41 527 -77 245 -36 508 -74 585 -85
l140 -18 -232 -1 -232 -1 -11 -57 c-6 -32 -28 -118 -47 -190 l-36 -133 -371 0
c-312 -1 -368 -3 -353 -14 33 -25 301 -74 832 -151 176 -26 322 -49 324 -51 2
-2 -108 -4 -245 -4 l-249 0 -23 -123 c-20 -106 -144 -671 -158 -719 -5 -17
-26 -18 -250 -18 -238 0 -282 -6 -220 -30 64 -24 502 -103 886 -160 80 -12
152 -25 160 -28 8 -4 -133 -9 -315 -12 l-329 -5 -88 -360 c-198 -814 -338
-1446 -338 -1527 l0 -38 564 0 c316 0 575 4 589 9 22 8 30 34 95 298 39 158
89 344 111 413 22 69 52 190 66 270 41 224 104 504 136 604 29 86 56 143 65
134 2 -3 20 -114 39 -248 87 -602 166 -996 216 -1078 16 -27 25 -32 57 -32
l39 0 444 686 c244 378 447 692 451 698 23 35 13 -24 -30 -190 -86 -328 -252
-1046 -252 -1089 0 -13 -22 -15 -140 -15 l-140 0 0 -25 c0 -20 7 -26 38 -34
20 -6 143 -37 272 -71 129 -33 244 -64 255 -69 13 -6 -44 -10 -166 -10 l-186
-1 -18 -110 c-14 -88 -15 -113 -5 -125 11 -13 85 -15 571 -15 316 0 568 4 582
9 23 9 34 48 180 638 164 657 224 907 517 2138 317 1333 286 1196 265 1211
-28 21 -993 21 -1033 0 -84 -43 -219 -236 -391 -558 l-52 -98 -245 0 -244 0 0
-24 c0 -20 6 -25 38 -30 57 -10 455 -117 472 -127 10 -5 -14 -9 -65 -9 l-80 0
-69 -113 c-178 -286 -584 -969 -611 -1025 -16 -34 -34 -60 -40 -59 -5 2 -20
93 -32 203 -34 294 -72 571 -88 639 -8 33 -19 128 -25 210 -27 372 -76 744
-115 870 -8 28 -26 68 -38 90 l-23 40 -489 2 c-270 1 -499 -2 -510 -6z"/>
<path d="M1548 3988 c-49 -13 -94 -65 -103 -117 l-7 -41 -364 0 c-317 0 -364
-2 -364 -15 0 -8 5 -15 10 -15 6 0 253 -32 548 -70 296 -39 627 -81 737 -94
l200 -24 -411 -1 -412 -1 -36 -147 c-20 -82 -41 -165 -47 -185 l-10 -38 -320
0 c-244 0 -320 -3 -317 -12 3 -7 18 -15 34 -20 98 -26 745 -114 1219 -165
l170 -18 -425 -5 -425 -5 -86 -400 c-47 -220 -89 -412 -92 -427 l-7 -28 -350
0 -350 0 0 -25 c0 -16 6 -25 16 -25 25 0 1368 -160 1379 -164 6 -3 -162 -5
-372 -5 -211 -1 -383 -4 -383 -7 0 -6 -228 -948 -236 -976 -5 -17 -32 -18
-375 -18 -319 0 -369 -2 -369 -15 0 -8 10 -17 23 -20 12 -2 328 -41 701 -85
374 -44 682 -82 684 -85 3 -3 -162 -5 -366 -5 l-372 0 0 -32 c0 -39 -56 -291
-110 -493 -44 -166 -46 -153 30 -185 28 -12 112 -15 444 -18 440 -3 572 5 590
35 72 122 226 715 422 1631 28 127 52 221 58 219 11 -4 349 -1247 341 -1255
-2 -3 -36 -7 -75 -10 -64 -4 -70 -6 -70 -27 0 -21 16 -27 253 -85 138 -35 256
-67 261 -71 6 -5 -52 -9 -132 -9 l-143 0 7 -67 c18 -197 82 -311 196 -349 44
-14 92 -16 401 -11 194 3 362 8 373 12 23 7 54 107 154 495 148 581 810 3390
810 3441 0 10 -10 25 -22 33 -20 14 -87 16 -530 16 -562 0 -520 5 -557 -69
-39 -76 -123 -394 -146 -553 l-7 -48 -199 0 -199 0 0 -22 c0 -22 17 -27 260
-87 143 -36 260 -69 260 -73 0 -4 -42 -8 -93 -8 l-93 0 -106 -476 c-59 -262
-110 -479 -113 -482 -10 -10 -23 18 -30 67 -9 60 -132 489 -235 816 -44 143
-98 334 -119 425 -62 263 -120 417 -183 476 l-29 29 -377 2 c-228 1 -392 -3
-414 -9z"/>
<path d="M5971 3965 c-16 -19 -36 -53 -42 -75 l-12 -40 -524 0 -524 0 3 -22
c3 -22 16 -24 693 -104 380 -45 699 -84 710 -87 11 -2 -78 -5 -197 -6 l-217
-1 -5 -32 c-36 -237 -45 -276 -76 -325 l-20 -33 -320 0 c-404 0 -420 -12 -83
-65 170 -27 770 -103 1023 -130 85 -9 164 -20 175 -25 11 -5 -160 -9 -402 -9
l-422 -1 -26 -82 c-21 -70 -103 -405 -171 -700 l-18 -78 -508 0 c-404 0 -508
-3 -508 -13 0 -13 158 -35 1075 -153 l410 -52 -265 -4 -264 -3 -83 -355 c-45
-195 -94 -417 -110 -492 l-28 -138 -524 0 c-350 0 -522 -3 -515 -10 26 -26
373 -81 924 -145 168 -19 355 -41 415 -49 l110 -13 -223 -2 -222 -1 -20 -33
c-30 -47 -67 -177 -106 -365 -42 -208 -51 -286 -34 -307 11 -13 79 -15 534
-14 286 1 532 4 545 8 23 6 44 87 497 1956 261 1073 474 1958 474 1967 0 9 -5
29 -12 43 l-11 25 -533 0 -532 0 -31 -35z"/>
<path d="M17495 3985 c-56 -20 -75 -47 -75 -106 l0 -49 -571 0 c-446 0 -570
-3 -567 -12 3 -7 43 -18 99 -25 477 -65 944 -126 1134 -148 127 -15 232 -29
234 -31 2 -2 -85 -4 -195 -4 l-199 0 -38 -137 c-20 -76 -42 -164 -49 -195
l-11 -58 -378 0 c-313 0 -379 -2 -379 -14 0 -8 16 -15 43 -19 23 -3 341 -40
707 -84 l665 -78 -357 -3 -358 -2 -5 -23 c-83 -363 -114 -495 -155 -655 -28
-105 -50 -194 -50 -197 0 -3 -241 -5 -535 -5 -469 0 -535 -2 -535 -15 0 -8 8
-15 18 -15 38 0 1375 -160 1380 -165 3 -3 -71 -5 -165 -5 -196 0 -187 4 -227
-101 -33 -87 -116 -422 -169 -684 l-44 -210 -552 -3 c-514 -2 -552 -3 -549
-19 3 -15 66 -25 453 -75 248 -32 582 -74 744 -93 162 -19 296 -37 299 -40 3
-3 -99 -5 -226 -5 -128 0 -232 -2 -232 -4 0 -2 -34 -144 -75 -315 -41 -172
-75 -321 -75 -331 0 -10 15 -28 34 -39 33 -21 36 -21 1169 -21 l1135 0 31 29
c68 64 123 236 166 524 11 70 12 104 5 117 -10 20 -26 20 -625 20 -480 0 -615
3 -615 12 0 7 172 745 382 1640 210 895 379 1630 376 1634 -19 19 -130 24
-553 23 -380 0 -478 -3 -510 -14z"/>
<path d="M20780 3984 c-52 -23 -79 -53 -92 -101 l-10 -43 -549 0 c-329 0 -549
-4 -549 -9 0 -29 359 -85 1070 -166 173 -19 329 -39 345 -44 20 -6 -37 -9
-171 -10 l-202 -1 -16 -72 c-8 -40 -30 -128 -48 -195 l-32 -123 -488 0 c-427
0 -488 -2 -488 -15 0 -8 5 -15 11 -15 30 0 1483 -181 1487 -185 3 -3 -127 -5
-289 -5 l-294 0 -84 -398 c-47 -218 -89 -412 -93 -429 l-9 -33 -534 0 c-343 0
-535 -4 -535 -10 0 -5 10 -12 23 -15 12 -2 335 -43 717 -90 382 -47 711 -89
730 -94 23 -6 -50 -9 -211 -10 l-246 -1 -61 -237 c-34 -131 -89 -352 -124
-491 l-63 -252 -537 0 c-452 0 -538 -2 -538 -14 0 -8 14 -16 33 -20 58 -10
996 -134 1216 -160 118 -14 216 -28 219 -31 3 -3 -98 -5 -225 -5 l-230 0 -42
-202 c-52 -254 -81 -413 -81 -449 0 -63 -78 -59 1139 -59 l1108 0 28 28 c59
58 108 219 140 465 18 143 19 183 3 194 -7 4 -267 10 -578 13 l-566 5 136 558
135 557 501 0 501 0 21 23 c49 52 101 218 141 451 27 153 27 202 2 216 -13 6
-188 10 -501 10 l-482 0 6 28 c3 15 20 106 37 202 39 218 90 423 123 495 l25
55 561 2 562 3 32 36 c43 46 72 125 102 269 31 153 55 362 42 375 -6 7 -389
11 -1101 12 -963 2 -1096 1 -1127 -13z"/>
	</g>
	<g id="black" transform="translate(0.000000,403.000000) scale(0.100000,-0.100000)"
fill="#000000" stroke="none">
<path d="M13520 4019 c-66 -11 -104 -46 -122 -114 l-12 -45 -528 0 c-311 0
-528 -4 -528 -9 0 -12 -28 -8 690 -102 338 -44 658 -86 710 -93 l95 -14 -237
-1 c-235 -1 -238 -1 -252 -23 -7 -13 -28 -88 -46 -168 -18 -80 -38 -160 -46
-177 l-13 -33 -320 0 c-177 0 -321 -4 -321 -9 0 -4 37 -13 83 -19 45 -6 389
-50 765 -99 l682 -88 -464 -3 -464 -2 -19 -73 c-11 -39 -60 -235 -109 -434
l-88 -363 -495 0 c-272 0 -491 -3 -487 -7 4 -5 357 -54 784 -110 l777 -101
-312 -1 -312 -1 -15 -52 c-32 -113 -188 -758 -221 -916 l-7 -32 -514 0 c-283
0 -514 -3 -514 -8 0 -4 345 -52 768 -107 l767 -100 -277 -3 -277 -2 -26 -83
c-36 -120 -125 -516 -125 -560 0 -69 -30 -67 849 -67 477 0 819 4 882 11 237
24 433 77 632 172 246 117 390 241 495 428 32 55 99 310 200 759 60 264 67
318 53 401 -28 153 -138 254 -365 335 l-78 27 83 29 c112 37 279 119 355 173
93 67 210 199 235 265 35 93 87 294 140 540 62 286 62 329 7 441 -86 173 -301
326 -549 389 -203 52 -220 53 -1064 56 -451 1 -814 -1 -845 -7z m1255 -634
c74 -20 105 -47 105 -92 0 -27 -58 -274 -96 -410 -6 -23 -9 -23 -155 -23 -150
0 -185 -9 -111 -30 20 -5 154 -43 297 -84 l260 -75 -170 -3 -170 -3 -17 -65
c-13 -49 -26 -73 -52 -97 -57 -53 -116 -64 -318 -61 l-176 3 38 155 c21 85 72
298 115 472 l77 317 81 4 c193 7 236 6 292 -8z m-350 -1607 c21 -8 48 -26 59
-41 23 -31 23 -31 -61 -379 l-57 -238 -175 0 c-106 0 -170 -4 -161 -9 18 -11
298 -95 470 -142 l125 -34 -151 -3 -151 -3 -13 -27 c-6 -15 -16 -53 -20 -85
-11 -76 -39 -118 -102 -153 -53 -29 -54 -29 -250 -32 -109 -2 -198 -1 -198 2
0 7 104 437 220 915 l62 253 182 -5 c123 -3 194 -9 221 -19z"/>
<path d="M8315 4001 c-44 -19 -85 -84 -85 -137 l0 -24 -465 0 c-378 0 -465 -2
-465 -13 0 -9 27 -17 83 -25 45 -6 282 -41 527 -77 245 -36 508 -74 585 -85
l140 -18 -232 -1 -232 -1 -11 -57 c-6 -32 -28 -118 -47 -190 l-36 -133 -371 0
c-312 -1 -368 -3 -353 -14 33 -25 301 -74 832 -151 176 -26 322 -49 324 -51 2
-2 -108 -4 -245 -4 l-249 0 -23 -123 c-20 -106 -144 -671 -158 -719 -5 -17
-26 -18 -250 -18 -238 0 -282 -6 -220 -30 64 -24 502 -103 886 -160 80 -12
152 -25 160 -28 8 -4 -133 -9 -315 -12 l-329 -5 -88 -360 c-198 -814 -338
-1446 -338 -1527 l0 -38 564 0 c316 0 575 4 589 9 22 8 30 34 95 298 39 158
89 344 111 413 22 69 52 190 66 270 41 224 104 504 136 604 29 86 56 143 65
134 2 -3 20 -114 39 -248 87 -602 166 -996 216 -1078 16 -27 25 -32 57 -32
l39 0 444 686 c244 378 447 692 451 698 23 35 13 -24 -30 -190 -86 -328 -252
-1046 -252 -1089 0 -13 -22 -15 -140 -15 l-140 0 0 -25 c0 -20 7 -26 38 -34
20 -6 143 -37 272 -71 129 -33 244 -64 255 -69 13 -6 -44 -10 -166 -10 l-186
-1 -18 -110 c-14 -88 -15 -113 -5 -125 11 -13 85 -15 571 -15 316 0 568 4 582
9 23 9 34 48 180 638 164 657 224 907 517 2138 317 1333 286 1196 265 1211
-28 21 -993 21 -1033 0 -84 -43 -219 -236 -391 -558 l-52 -98 -245 0 -244 0 0
-24 c0 -20 6 -25 38 -30 57 -10 455 -117 472 -127 10 -5 -14 -9 -65 -9 l-80 0
-69 -113 c-178 -286 -584 -969 -611 -1025 -16 -34 -34 -60 -40 -59 -5 2 -20
93 -32 203 -34 294 -72 571 -88 639 -8 33 -19 128 -25 210 -27 372 -76 744
-115 870 -8 28 -26 68 -38 90 l-23 40 -489 2 c-270 1 -499 -2 -510 -6z"/>
<path d="M1548 3988 c-49 -13 -94 -65 -103 -117 l-7 -41 -364 0 c-317 0 -364
-2 -364 -15 0 -8 5 -15 10 -15 6 0 253 -32 548 -70 296 -39 627 -81 737 -94
l200 -24 -411 -1 -412 -1 -36 -147 c-20 -82 -41 -165 -47 -185 l-10 -38 -320
0 c-244 0 -320 -3 -317 -12 3 -7 18 -15 34 -20 98 -26 745 -114 1219 -165
l170 -18 -425 -5 -425 -5 -86 -400 c-47 -220 -89 -412 -92 -427 l-7 -28 -350
0 -350 0 0 -25 c0 -16 6 -25 16 -25 25 0 1368 -160 1379 -164 6 -3 -162 -5
-372 -5 -211 -1 -383 -4 -383 -7 0 -6 -228 -948 -236 -976 -5 -17 -32 -18
-375 -18 -319 0 -369 -2 -369 -15 0 -8 10 -17 23 -20 12 -2 328 -41 701 -85
374 -44 682 -82 684 -85 3 -3 -162 -5 -366 -5 l-372 0 0 -32 c0 -39 -56 -291
-110 -493 -44 -166 -46 -153 30 -185 28 -12 112 -15 444 -18 440 -3 572 5 590
35 72 122 226 715 422 1631 28 127 52 221 58 219 11 -4 349 -1247 341 -1255
-2 -3 -36 -7 -75 -10 -64 -4 -70 -6 -70 -27 0 -21 16 -27 253 -85 138 -35 256
-67 261 -71 6 -5 -52 -9 -132 -9 l-143 0 7 -67 c18 -197 82 -311 196 -349 44
-14 92 -16 401 -11 194 3 362 8 373 12 23 7 54 107 154 495 148 581 810 3390
810 3441 0 10 -10 25 -22 33 -20 14 -87 16 -530 16 -562 0 -520 5 -557 -69
-39 -76 -123 -394 -146 -553 l-7 -48 -199 0 -199 0 0 -22 c0 -22 17 -27 260
-87 143 -36 260 -69 260 -73 0 -4 -42 -8 -93 -8 l-93 0 -106 -476 c-59 -262
-110 -479 -113 -482 -10 -10 -23 18 -30 67 -9 60 -132 489 -235 816 -44 143
-98 334 -119 425 -62 263 -120 417 -183 476 l-29 29 -377 2 c-228 1 -392 -3
-414 -9z"/>
<path d="M5971 3965 c-16 -19 -36 -53 -42 -75 l-12 -40 -524 0 -524 0 3 -22
c3 -22 16 -24 693 -104 380 -45 699 -84 710 -87 11 -2 -78 -5 -197 -6 l-217
-1 -5 -32 c-36 -237 -45 -276 -76 -325 l-20 -33 -320 0 c-404 0 -420 -12 -83
-65 170 -27 770 -103 1023 -130 85 -9 164 -20 175 -25 11 -5 -160 -9 -402 -9
l-422 -1 -26 -82 c-21 -70 -103 -405 -171 -700 l-18 -78 -508 0 c-404 0 -508
-3 -508 -13 0 -13 158 -35 1075 -153 l410 -52 -265 -4 -264 -3 -83 -355 c-45
-195 -94 -417 -110 -492 l-28 -138 -524 0 c-350 0 -522 -3 -515 -10 26 -26
373 -81 924 -145 168 -19 355 -41 415 -49 l110 -13 -223 -2 -222 -1 -20 -33
c-30 -47 -67 -177 -106 -365 -42 -208 -51 -286 -34 -307 11 -13 79 -15 534
-14 286 1 532 4 545 8 23 6 44 87 497 1956 261 1073 474 1958 474 1967 0 9 -5
29 -12 43 l-11 25 -533 0 -532 0 -31 -35z"/>
<path d="M17495 3985 c-56 -20 -75 -47 -75 -106 l0 -49 -571 0 c-446 0 -570
-3 -567 -12 3 -7 43 -18 99 -25 477 -65 944 -126 1134 -148 127 -15 232 -29
234 -31 2 -2 -85 -4 -195 -4 l-199 0 -38 -137 c-20 -76 -42 -164 -49 -195
l-11 -58 -378 0 c-313 0 -379 -2 -379 -14 0 -8 16 -15 43 -19 23 -3 341 -40
707 -84 l665 -78 -357 -3 -358 -2 -5 -23 c-83 -363 -114 -495 -155 -655 -28
-105 -50 -194 -50 -197 0 -3 -241 -5 -535 -5 -469 0 -535 -2 -535 -15 0 -8 8
-15 18 -15 38 0 1375 -160 1380 -165 3 -3 -71 -5 -165 -5 -196 0 -187 4 -227
-101 -33 -87 -116 -422 -169 -684 l-44 -210 -552 -3 c-514 -2 -552 -3 -549
-19 3 -15 66 -25 453 -75 248 -32 582 -74 744 -93 162 -19 296 -37 299 -40 3
-3 -99 -5 -226 -5 -128 0 -232 -2 -232 -4 0 -2 -34 -144 -75 -315 -41 -172
-75 -321 -75 -331 0 -10 15 -28 34 -39 33 -21 36 -21 1169 -21 l1135 0 31 29
c68 64 123 236 166 524 11 70 12 104 5 117 -10 20 -26 20 -625 20 -480 0 -615
3 -615 12 0 7 172 745 382 1640 210 895 379 1630 376 1634 -19 19 -130 24
-553 23 -380 0 -478 -3 -510 -14z"/>
<path d="M20780 3984 c-52 -23 -79 -53 -92 -101 l-10 -43 -549 0 c-329 0 -549
-4 -549 -9 0 -29 359 -85 1070 -166 173 -19 329 -39 345 -44 20 -6 -37 -9
-171 -10 l-202 -1 -16 -72 c-8 -40 -30 -128 -48 -195 l-32 -123 -488 0 c-427
0 -488 -2 -488 -15 0 -8 5 -15 11 -15 30 0 1483 -181 1487 -185 3 -3 -127 -5
-289 -5 l-294 0 -84 -398 c-47 -218 -89 -412 -93 -429 l-9 -33 -534 0 c-343 0
-535 -4 -535 -10 0 -5 10 -12 23 -15 12 -2 335 -43 717 -90 382 -47 711 -89
730 -94 23 -6 -50 -9 -211 -10 l-246 -1 -61 -237 c-34 -131 -89 -352 -124
-491 l-63 -252 -537 0 c-452 0 -538 -2 -538 -14 0 -8 14 -16 33 -20 58 -10
996 -134 1216 -160 118 -14 216 -28 219 -31 3 -3 -98 -5 -225 -5 l-230 0 -42
-202 c-52 -254 -81 -413 -81 -449 0 -63 -78 -59 1139 -59 l1108 0 28 28 c59
58 108 219 140 465 18 143 19 183 3 194 -7 4 -267 10 -578 13 l-566 5 136 558
135 557 501 0 501 0 21 23 c49 52 101 218 141 451 27 153 27 202 2 216 -13 6
-188 10 -501 10 l-482 0 6 28 c3 15 20 106 37 202 39 218 90 423 123 495 l25
55 561 2 562 3 32 36 c43 46 72 125 102 269 31 153 55 362 42 375 -6 7 -389
11 -1101 12 -963 2 -1096 1 -1127 -13z"/>
</g>
	<g id="purple" transform="translate(0.000000,403.000000) scale(0.100000,-0.100000)" fill="#6800D6" stroke="none">
		<path d="M13520 4019 c-66 -11 -104 -46 -122 -114 l-12 -45 -528 0 c-311 0
-528 -4 -528 -9 0 -12 -28 -8 690 -102 338 -44 658 -86 710 -93 l95 -14 -237
-1 c-235 -1 -238 -1 -252 -23 -7 -13 -28 -88 -46 -168 -18 -80 -38 -160 -46
-177 l-13 -33 -320 0 c-177 0 -321 -4 -321 -9 0 -4 37 -13 83 -19 45 -6 389
-50 765 -99 l682 -88 -464 -3 -464 -2 -19 -73 c-11 -39 -60 -235 -109 -434
l-88 -363 -495 0 c-272 0 -491 -3 -487 -7 4 -5 357 -54 784 -110 l777 -101
-312 -1 -312 -1 -15 -52 c-32 -113 -188 -758 -221 -916 l-7 -32 -514 0 c-283
0 -514 -3 -514 -8 0 -4 345 -52 768 -107 l767 -100 -277 -3 -277 -2 -26 -83
c-36 -120 -125 -516 -125 -560 0 -69 -30 -67 849 -67 477 0 819 4 882 11 237
24 433 77 632 172 246 117 390 241 495 428 32 55 99 310 200 759 60 264 67
318 53 401 -28 153 -138 254 -365 335 l-78 27 83 29 c112 37 279 119 355 173
93 67 210 199 235 265 35 93 87 294 140 540 62 286 62 329 7 441 -86 173 -301
326 -549 389 -203 52 -220 53 -1064 56 -451 1 -814 -1 -845 -7z m1255 -634
c74 -20 105 -47 105 -92 0 -27 -58 -274 -96 -410 -6 -23 -9 -23 -155 -23 -150
0 -185 -9 -111 -30 20 -5 154 -43 297 -84 l260 -75 -170 -3 -170 -3 -17 -65
c-13 -49 -26 -73 -52 -97 -57 -53 -116 -64 -318 -61 l-176 3 38 155 c21 85 72
298 115 472 l77 317 81 4 c193 7 236 6 292 -8z m-350 -1607 c21 -8 48 -26 59
-41 23 -31 23 -31 -61 -379 l-57 -238 -175 0 c-106 0 -170 -4 -161 -9 18 -11
298 -95 470 -142 l125 -34 -151 -3 -151 -3 -13 -27 c-6 -15 -16 -53 -20 -85
-11 -76 -39 -118 -102 -153 -53 -29 -54 -29 -250 -32 -109 -2 -198 -1 -198 2
0 7 104 437 220 915 l62 253 182 -5 c123 -3 194 -9 221 -19z"/>
<path d="M8315 4001 c-44 -19 -85 -84 -85 -137 l0 -24 -465 0 c-378 0 -465 -2
-465 -13 0 -9 27 -17 83 -25 45 -6 282 -41 527 -77 245 -36 508 -74 585 -85
l140 -18 -232 -1 -232 -1 -11 -57 c-6 -32 -28 -118 -47 -190 l-36 -133 -371 0
c-312 -1 -368 -3 -353 -14 33 -25 301 -74 832 -151 176 -26 322 -49 324 -51 2
-2 -108 -4 -245 -4 l-249 0 -23 -123 c-20 -106 -144 -671 -158 -719 -5 -17
-26 -18 -250 -18 -238 0 -282 -6 -220 -30 64 -24 502 -103 886 -160 80 -12
152 -25 160 -28 8 -4 -133 -9 -315 -12 l-329 -5 -88 -360 c-198 -814 -338
-1446 -338 -1527 l0 -38 564 0 c316 0 575 4 589 9 22 8 30 34 95 298 39 158
89 344 111 413 22 69 52 190 66 270 41 224 104 504 136 604 29 86 56 143 65
134 2 -3 20 -114 39 -248 87 -602 166 -996 216 -1078 16 -27 25 -32 57 -32
l39 0 444 686 c244 378 447 692 451 698 23 35 13 -24 -30 -190 -86 -328 -252
-1046 -252 -1089 0 -13 -22 -15 -140 -15 l-140 0 0 -25 c0 -20 7 -26 38 -34
20 -6 143 -37 272 -71 129 -33 244 -64 255 -69 13 -6 -44 -10 -166 -10 l-186
-1 -18 -110 c-14 -88 -15 -113 -5 -125 11 -13 85 -15 571 -15 316 0 568 4 582
9 23 9 34 48 180 638 164 657 224 907 517 2138 317 1333 286 1196 265 1211
-28 21 -993 21 -1033 0 -84 -43 -219 -236 -391 -558 l-52 -98 -245 0 -244 0 0
-24 c0 -20 6 -25 38 -30 57 -10 455 -117 472 -127 10 -5 -14 -9 -65 -9 l-80 0
-69 -113 c-178 -286 -584 -969 -611 -1025 -16 -34 -34 -60 -40 -59 -5 2 -20
93 -32 203 -34 294 -72 571 -88 639 -8 33 -19 128 -25 210 -27 372 -76 744
-115 870 -8 28 -26 68 -38 90 l-23 40 -489 2 c-270 1 -499 -2 -510 -6z"/>
<path d="M1548 3988 c-49 -13 -94 -65 -103 -117 l-7 -41 -364 0 c-317 0 -364
-2 -364 -15 0 -8 5 -15 10 -15 6 0 253 -32 548 -70 296 -39 627 -81 737 -94
l200 -24 -411 -1 -412 -1 -36 -147 c-20 -82 -41 -165 -47 -185 l-10 -38 -320
0 c-244 0 -320 -3 -317 -12 3 -7 18 -15 34 -20 98 -26 745 -114 1219 -165
l170 -18 -425 -5 -425 -5 -86 -400 c-47 -220 -89 -412 -92 -427 l-7 -28 -350
0 -350 0 0 -25 c0 -16 6 -25 16 -25 25 0 1368 -160 1379 -164 6 -3 -162 -5
-372 -5 -211 -1 -383 -4 -383 -7 0 -6 -228 -948 -236 -976 -5 -17 -32 -18
-375 -18 -319 0 -369 -2 -369 -15 0 -8 10 -17 23 -20 12 -2 328 -41 701 -85
374 -44 682 -82 684 -85 3 -3 -162 -5 -366 -5 l-372 0 0 -32 c0 -39 -56 -291
-110 -493 -44 -166 -46 -153 30 -185 28 -12 112 -15 444 -18 440 -3 572 5 590
35 72 122 226 715 422 1631 28 127 52 221 58 219 11 -4 349 -1247 341 -1255
-2 -3 -36 -7 -75 -10 -64 -4 -70 -6 -70 -27 0 -21 16 -27 253 -85 138 -35 256
-67 261 -71 6 -5 -52 -9 -132 -9 l-143 0 7 -67 c18 -197 82 -311 196 -349 44
-14 92 -16 401 -11 194 3 362 8 373 12 23 7 54 107 154 495 148 581 810 3390
810 3441 0 10 -10 25 -22 33 -20 14 -87 16 -530 16 -562 0 -520 5 -557 -69
-39 -76 -123 -394 -146 -553 l-7 -48 -199 0 -199 0 0 -22 c0 -22 17 -27 260
-87 143 -36 260 -69 260 -73 0 -4 -42 -8 -93 -8 l-93 0 -106 -476 c-59 -262
-110 -479 -113 -482 -10 -10 -23 18 -30 67 -9 60 -132 489 -235 816 -44 143
-98 334 -119 425 -62 263 -120 417 -183 476 l-29 29 -377 2 c-228 1 -392 -3
-414 -9z"/>
<path d="M5971 3965 c-16 -19 -36 -53 -42 -75 l-12 -40 -524 0 -524 0 3 -22
c3 -22 16 -24 693 -104 380 -45 699 -84 710 -87 11 -2 -78 -5 -197 -6 l-217
-1 -5 -32 c-36 -237 -45 -276 -76 -325 l-20 -33 -320 0 c-404 0 -420 -12 -83
-65 170 -27 770 -103 1023 -130 85 -9 164 -20 175 -25 11 -5 -160 -9 -402 -9
l-422 -1 -26 -82 c-21 -70 -103 -405 -171 -700 l-18 -78 -508 0 c-404 0 -508
-3 -508 -13 0 -13 158 -35 1075 -153 l410 -52 -265 -4 -264 -3 -83 -355 c-45
-195 -94 -417 -110 -492 l-28 -138 -524 0 c-350 0 -522 -3 -515 -10 26 -26
373 -81 924 -145 168 -19 355 -41 415 -49 l110 -13 -223 -2 -222 -1 -20 -33
c-30 -47 -67 -177 -106 -365 -42 -208 -51 -286 -34 -307 11 -13 79 -15 534
-14 286 1 532 4 545 8 23 6 44 87 497 1956 261 1073 474 1958 474 1967 0 9 -5
29 -12 43 l-11 25 -533 0 -532 0 -31 -35z"/>
<path d="M17495 3985 c-56 -20 -75 -47 -75 -106 l0 -49 -571 0 c-446 0 -570
-3 -567 -12 3 -7 43 -18 99 -25 477 -65 944 -126 1134 -148 127 -15 232 -29
234 -31 2 -2 -85 -4 -195 -4 l-199 0 -38 -137 c-20 -76 -42 -164 -49 -195
l-11 -58 -378 0 c-313 0 -379 -2 -379 -14 0 -8 16 -15 43 -19 23 -3 341 -40
707 -84 l665 -78 -357 -3 -358 -2 -5 -23 c-83 -363 -114 -495 -155 -655 -28
-105 -50 -194 -50 -197 0 -3 -241 -5 -535 -5 -469 0 -535 -2 -535 -15 0 -8 8
-15 18 -15 38 0 1375 -160 1380 -165 3 -3 -71 -5 -165 -5 -196 0 -187 4 -227
-101 -33 -87 -116 -422 -169 -684 l-44 -210 -552 -3 c-514 -2 -552 -3 -549
-19 3 -15 66 -25 453 -75 248 -32 582 -74 744 -93 162 -19 296 -37 299 -40 3
-3 -99 -5 -226 -5 -128 0 -232 -2 -232 -4 0 -2 -34 -144 -75 -315 -41 -172
-75 -321 -75 -331 0 -10 15 -28 34 -39 33 -21 36 -21 1169 -21 l1135 0 31 29
c68 64 123 236 166 524 11 70 12 104 5 117 -10 20 -26 20 -625 20 -480 0 -615
3 -615 12 0 7 172 745 382 1640 210 895 379 1630 376 1634 -19 19 -130 24
-553 23 -380 0 -478 -3 -510 -14z"/>
<path d="M20780 3984 c-52 -23 -79 -53 -92 -101 l-10 -43 -549 0 c-329 0 -549
-4 -549 -9 0 -29 359 -85 1070 -166 173 -19 329 -39 345 -44 20 -6 -37 -9
-171 -10 l-202 -1 -16 -72 c-8 -40 -30 -128 -48 -195 l-32 -123 -488 0 c-427
0 -488 -2 -488 -15 0 -8 5 -15 11 -15 30 0 1483 -181 1487 -185 3 -3 -127 -5
-289 -5 l-294 0 -84 -398 c-47 -218 -89 -412 -93 -429 l-9 -33 -534 0 c-343 0
-535 -4 -535 -10 0 -5 10 -12 23 -15 12 -2 335 -43 717 -90 382 -47 711 -89
730 -94 23 -6 -50 -9 -211 -10 l-246 -1 -61 -237 c-34 -131 -89 -352 -124
-491 l-63 -252 -537 0 c-452 0 -538 -2 -538 -14 0 -8 14 -16 33 -20 58 -10
996 -134 1216 -160 118 -14 216 -28 219 -31 3 -3 -98 -5 -225 -5 l-230 0 -42
-202 c-52 -254 -81 -413 -81 -449 0 -63 -78 -59 1139 -59 l1108 0 28 28 c59
58 108 219 140 465 18 143 19 183 3 194 -7 4 -267 10 -578 13 l-566 5 136 558
135 557 501 0 501 0 21 23 c49 52 101 218 141 451 27 153 27 202 2 216 -13 6
-188 10 -501 10 l-482 0 6 28 c3 15 20 106 37 202 39 218 90 423 123 495 l25
55 561 2 562 3 32 36 c43 46 72 125 102 269 31 153 55 362 42 375 -6 7 -389
11 -1101 12 -963 2 -1096 1 -1127 -13z"/>
	</g>
</svg>
